<svg width="54" height="72" viewBox="0 0 54 72" fill="none" xmlns="http://www.w3.org/2000/svg">
<path d="M39.3519 22.4839H14.6481C13.4831 22.4839 12.5387 23.4283 12.5387 24.5933V69.8909C12.5387 70.628 12.9233 71.3115 13.5534 71.694C14.1832 72.0764 14.9673 72.1027 15.6212 71.7624L27 65.8456L38.3788 71.7624C38.6844 71.9213 39.0184 72.0002 39.3518 72.0002C39.7318 72.0002 40.111 71.8977 40.4466 71.6939C41.0766 71.3113 41.4613 70.6278 41.4613 69.8908V24.5933C41.4613 23.4283 40.5169 22.4839 39.3519 22.4839Z" fill="#E50058"/>
<path d="M39.3519 22.4839H27V65.8457L38.3788 71.7625C38.6844 71.9214 39.0184 72.0003 39.3518 72.0003C39.7318 72.0003 40.111 71.8978 40.4466 71.694C41.0766 71.3114 41.4613 70.628 41.4613 69.891V24.5933C41.4613 23.4283 40.5169 22.4839 39.3519 22.4839Z" fill="#B40042"/>
<path d="M27 52.7926C41.737 52.7926 53.6837 40.9746 53.6837 26.3963C53.6837 11.818 41.737 0 27 0C12.263 0 0.316284 11.818 0.316284 26.3963C0.316284 40.9746 12.263 52.7926 27 52.7926Z" fill="#FFCC66"/>
<path d="M53.6837 26.3963C53.6837 11.8413 41.7134 0 27 0V52.7926C41.7134 52.7926 53.6837 40.9513 53.6837 26.3963Z" fill="#FFA64D"/>
<path d="M27 44.8618C37.3051 44.8618 45.659 36.5946 45.659 26.3965C45.659 16.1984 37.3051 7.93115 27 7.93115C16.695 7.93115 8.34106 16.1984 8.34106 26.3965C8.34106 36.5946 16.695 44.8618 27 44.8618Z" fill="#FFEA80"/>
<path d="M45.659 26.3965C45.659 16.2148 37.2887 7.93115 27 7.93115V44.8617C37.2885 44.8618 45.659 36.5782 45.659 26.3965Z" fill="#FFCC66"/>
<path d="M27 16.9741H24.1646C22.9997 16.9741 22.0552 17.9186 22.0552 19.0835C22.0552 20.2484 22.9997 21.1929 24.1646 21.1929H24.8907V34.0688C24.8907 35.2337 25.8351 36.1782 27 36.1782C28.165 36.1782 29.1094 35.2337 29.1094 34.0688V19.0835C29.1094 17.9186 28.1651 16.9741 27 16.9741Z" fill="#E50058"/>
<path d="M29.1094 34.0688V19.0835C29.1094 17.9186 28.1649 16.9741 27 16.9741V36.1782C28.1651 36.1782 29.1094 35.2337 29.1094 34.0688Z" fill="#B40042"/>
</svg>
