<svg width="167" height="171" viewBox="0 0 167 171" fill="none" xmlns="http://www.w3.org/2000/svg">
<rect width="167" height="171" rx="16" fill="#FC8D8D"/>
<g clip-path="url(#clip0)">
<path d="M119.247 111.34C118.794 110.887 118.501 110.244 118.492 109.614L118.362 100.131C118.353 99.4999 118.594 98.899 119.035 98.4585C119.476 98.018 120.111 97.7425 120.741 97.7513L130.226 97.88C131.487 97.8974 132.619 99.0295 132.637 100.291L132.768 109.846C132.777 110.477 132.535 111.077 132.095 111.518C131.654 111.959 131.053 112.2 130.423 112.191L120.938 112.059C120.307 112.051 119.699 111.793 119.247 111.34Z" fill="#C5C9F7"/>
<path d="M64.5486 96.9968L64.7448 111.267L104.26 111.81L104.063 97.54L64.5486 96.9968Z" fill="#C5C9F7"/>
<path d="M36.9062 110.208C36.47 109.772 36.1958 109.173 36.1869 108.516L36.054 98.963C36.0453 98.3322 36.2866 97.7314 36.7271 97.2908C37.1676 96.8503 37.7686 96.6089 38.3993 96.6177L47.8838 96.7498C49.1976 96.7678 50.2765 97.8468 50.2946 99.1606L50.4259 108.712C50.444 110.026 49.3943 111.076 48.0805 111.058L38.5977 110.927C37.9407 110.918 37.3425 110.644 36.9062 110.208Z" fill="#C5C9F7"/>
<path d="M36.1868 108.516C36.1958 109.173 36.47 109.772 36.9062 110.208C37.3423 110.644 37.9406 110.918 38.5975 110.927L48.0803 111.057C49.3941 111.075 50.4437 110.026 50.4257 108.712L50.36 103.936L36.1201 103.74L36.1868 108.516Z" fill="#A8AFF1"/>
<path d="M118.492 109.613C118.501 110.244 118.794 110.887 119.247 111.34C119.699 111.793 120.307 112.051 120.938 112.059L130.422 112.191C131.053 112.2 131.654 111.959 132.095 111.518C132.535 111.077 132.776 110.476 132.768 109.846L132.702 105.068L118.427 104.872L118.492 109.613Z" fill="#A8AFF1"/>
<path d="M104.161 104.676L64.6466 104.133L64.7447 111.267L104.259 111.81L104.161 104.676Z" fill="#A8AFF1"/>
<path d="M111.591 126.178L111.003 83.3681L118.138 83.4661C120.765 83.5023 122.924 85.6612 122.96 88.2882L123.417 121.585C123.454 124.212 121.353 126.312 118.726 126.276L111.591 126.178Z" fill="#1689FC"/>
<path d="M99.7321 128.393L99.0783 80.8263C99.0602 79.5128 100.11 78.4626 101.424 78.4807L106.181 78.5461C108.808 78.5822 110.967 80.7411 111.003 83.3681L111.591 126.178C111.627 128.806 109.527 130.906 106.9 130.87L102.143 130.804C100.83 130.786 99.7502 129.707 99.7321 128.393Z" fill="#17ACE8"/>
<path d="M57.2165 82.629L57.8049 125.439L50.6699 125.341C48.0427 125.305 45.8838 123.146 45.8478 120.519L45.3901 87.2222C45.354 84.595 47.4544 82.4947 50.0814 82.5309L57.2165 82.629Z" fill="#1689FC"/>
<path d="M69.0754 80.414L69.7293 127.981C69.7473 129.295 68.6972 130.345 67.3836 130.327L62.627 130.261C59.9999 130.225 57.8409 128.066 57.8049 125.439L57.2164 82.6289C57.1803 80.0018 59.2806 77.9015 61.9076 77.9377L66.6643 78.0031C67.978 78.021 69.0574 79.1004 69.0754 80.414Z" fill="#17ACE8"/>
<path d="M45.8477 120.519C45.8839 123.146 48.0428 125.305 50.6698 125.341L57.8049 125.439L57.5109 104.035L45.6191 103.871L45.8477 120.519Z" fill="#136EF1"/>
<path d="M111.297 104.774L111.591 126.179L118.726 126.277C121.353 126.313 123.454 124.213 123.418 121.586L123.189 104.938L111.297 104.774Z" fill="#136EF1"/>
<path d="M57.8048 125.439C57.8409 128.066 59.9999 130.225 62.627 130.261L67.3839 130.327C68.6974 130.345 69.7475 129.295 69.7295 127.981L69.4025 104.198L57.5107 104.035L57.8048 125.439Z" fill="#1689FC"/>
<path d="M99.7322 128.394C99.7503 129.707 100.83 130.787 102.143 130.805L106.9 130.87C109.527 130.906 111.627 128.806 111.591 126.179L111.297 104.774L99.4056 104.611L99.7322 128.394Z" fill="#1689FC"/>
</g>
<defs>
<clipPath id="clip0">
<rect width="82.297" height="80.0653" fill="white" transform="translate(83.6147 47) rotate(45)"/>
</clipPath>
</defs>
</svg>
