<svg width="172" height="171" viewBox="0 0 172 171" fill="none" xmlns="http://www.w3.org/2000/svg">
<mask id="mask0" mask-type="alpha" maskUnits="userSpaceOnUse" x="0" y="0" width="172" height="171">
<rect width="172" height="171" rx="16" fill="#FC8D8D"/>
</mask>
<g mask="url(#mask0)">
<rect width="172" height="171" rx="16" fill="#FC8D8D"/>
<path d="M32.5 91.0002C-12.7 80.2002 -56.3333 105.834 -72.5 120L-7 218H92.5H199V91.0002C193.833 97.1668 172.5 109.5 128.5 109.5C73.5 109.5 89 104.5 32.5 91.0002Z" fill="#5975B7"/>
<circle cx="24.5" cy="128" r="16" fill="#E6EAF5"/>
<circle cx="24.5" cy="128" r="16" fill="#E6EAF5"/>
<circle cx="24.5" cy="128" r="16" fill="#E6EAF5"/>
<circle cx="155" cy="125.5" r="6.5" fill="#E6EAF5"/>
<circle cx="155" cy="125.5" r="6.5" fill="#E6EAF5"/>
<circle cx="155" cy="125.5" r="6.5" fill="#E6EAF5"/>
<circle cx="52.5" cy="118" r="6" fill="#E6EAF5"/>
<circle cx="52.5" cy="118" r="6" fill="#E6EAF5"/>
<circle cx="52.5" cy="118" r="6" fill="#E6EAF5"/>
<circle cx="134" cy="135.5" r="3.5" fill="#E6EAF5"/>
<circle cx="134" cy="135.5" r="3.5" fill="#E6EAF5"/>
<circle cx="134" cy="135.5" r="3.5" fill="#E6EAF5"/>
<circle cx="35" cy="102.5" r="3.5" fill="#E6EAF5"/>
<circle cx="35" cy="102.5" r="3.5" fill="#E6EAF5"/>
<circle cx="35" cy="102.5" r="3.5" fill="#E6EAF5"/>
</g>
</svg>
