<svg width="208" height="100" viewBox="0 0 208 100" fill="none" xmlns="http://www.w3.org/2000/svg">
<path d="M158.267 36C161.629 36 164.916 36.997 167.711 38.865C170.507 40.733 172.686 43.388 173.973 46.4944C175.259 49.6007 175.596 53.0189 174.94 56.3166C174.284 59.6142 172.665 62.6433 170.287 65.0208C167.91 67.3983 164.881 69.0174 161.583 69.6734C158.285 70.3293 154.867 69.9926 151.761 68.7059C148.655 67.4192 146 65.2403 144.132 62.4447C142.264 59.649 141.267 56.3623 141.267 53" stroke="#FC8D8D" stroke-width="6"/>
<path d="M172.267 34.4037L178.267 31V84H172.267V34.4037Z" fill="#FC8D8D"/>
<path d="M25.2969 36.5H31.8594V62.9375C32.2969 70.75 35.8906 74.7812 42.6406 75.0312C48.3906 75.0312 51.9844 71.5 53.4219 64.4375C53.4219 64.375 53.4219 64.3125 53.4219 64.25L50.8906 63.7812C49.3281 68.9688 47.0469 71.7812 44.0469 72.2188C40.6719 72.0938 38.9531 69.6875 38.8906 65V36.5H53.4219V34.1562H38.8906V23.2812L31.8594 25.25V34.1562H25.2969V36.5ZM90.5469 74.9375C95.3594 74.9375 98.0156 72.0312 98.5156 66.2188C98.5781 65.8438 98.6094 65.5 98.6094 65.1875L96.1719 65.0938C95.7344 69.6562 94.5156 71.9688 92.5156 72.0312C90.8906 71.9062 90.0469 70.2812 89.9844 67.1562V47.375C89.9844 38.4375 85.5156 33.7188 76.5781 33.2188C76.0156 33.2188 75.4531 33.2188 74.8906 33.2188C67.8906 33.2188 63.2031 34.8438 60.8281 38.0938C60.0781 39.1562 59.7031 40.2188 59.7031 41.2812C59.7031 43.2188 60.6094 44.3438 62.4219 44.6562C62.7344 44.7188 63.0469 44.75 63.3594 44.75C64.7969 44.75 65.8594 43.8438 66.5469 42.0312C67.4219 39.7188 68.0156 38.3438 68.3281 37.9062C69.5156 36.3438 71.3594 35.5625 73.8594 35.5625C79.7344 35.9375 82.7656 39.1562 82.9531 45.2188V51.125C68.2656 51.125 59.8594 54.1875 57.7344 60.3125C57.3594 61.5 57.1719 62.7812 57.1719 64.1562C57.1719 68.9062 59.2656 72.1562 63.4531 73.9062C65.1406 74.5938 66.9219 74.9375 68.7969 74.9375C73.3594 74.9375 77.2031 73.375 80.3281 70.25C81.4531 69.0625 82.2969 67.8125 82.8594 66.5C83.6094 72.0625 86.1719 74.875 90.5469 74.9375ZM71.8906 71.1875C68.0781 71.1875 65.7344 69.2812 64.8594 65.4688C64.6719 64.5938 64.5781 63.625 64.5781 62.5625C64.5781 58.375 66.9844 55.7188 71.7969 54.5938C74.3594 54.0312 78.0781 53.7188 82.9531 53.6562V61.1562C82.0156 65.4688 79.7344 68.5 76.1094 70.25C74.6719 70.875 73.2656 71.1875 71.8906 71.1875ZM116.891 72.4062C121.203 72.4062 124.109 71.0938 125.609 68.4688C126.172 67.5312 126.453 66.5 126.453 65.375C126.453 62.75 124.547 60.5 120.734 58.625C119.922 58.1875 118.578 57.5625 116.703 56.75C111.578 54.625 108.172 52.625 106.484 50.75C104.672 48.6875 103.766 46.2812 103.766 43.5312C103.766 39.2188 106.141 36.1875 110.891 34.4375C113.078 33.625 115.453 33.2188 118.016 33.2188C122.141 33.2188 125.703 34.0938 128.703 35.8438C128.703 34.0312 129.141 33 130.016 32.75C130.391 32.6875 130.797 32.6562 131.234 32.6562V44.375H128.797C128.672 38.625 125.484 35.7188 119.234 35.6562C114.547 35.6562 111.641 37.0312 110.516 39.7812C110.203 40.5312 110.047 41.3125 110.047 42.125C110.047 44.8125 111.984 47.0938 115.859 48.9688C116.734 49.4062 118.109 50 119.984 50.75C125.047 52.8125 128.422 54.7812 130.109 56.6562C131.922 58.6562 132.828 61.0312 132.828 63.7812C132.828 68.8438 130.141 72.2188 124.766 73.9062C122.703 74.5938 120.453 74.9375 118.016 74.9375C113.516 74.875 109.609 73.75 106.297 71.5625C106.297 73.1875 105.891 74.125 105.078 74.375C104.703 74.4375 104.266 74.4688 103.766 74.4688V60.2188H106.391C106.516 68.2812 110.016 72.3438 116.891 72.4062Z" fill="#FC8D8D"/>
</svg>
