<svg width="262" height="127" viewBox="0 0 262 127" fill="none" xmlns="http://www.w3.org/2000/svg">
<rect x="261" y="113" width="13" height="260" rx="6.5" transform="rotate(90 261 113)" fill="#E6EAF5" stroke="#E6EAF5" stroke-width="2"/>
<rect x="60" y="113" width="13" height="59" rx="6.5" transform="rotate(90 60 113)" fill="#5975B7" stroke="#E6EAF5" stroke-width="2"/>
<rect x="261" y="76" width="13" height="260" rx="6.5" transform="rotate(90 261 76)" fill="#E6EAF5" stroke="#E6EAF5" stroke-width="2"/>
<rect x="164" y="76" width="13" height="163" rx="6.5" transform="rotate(90 164 76)" fill="#5975B7" stroke="#E6EAF5" stroke-width="2"/>
<rect x="261" y="38" width="13" height="260" rx="6.5" transform="rotate(90 261 38)" fill="#E6EAF5" stroke="#E6EAF5" stroke-width="2"/>
<rect x="164" y="38" width="13" height="163" rx="6.5" transform="rotate(90 164 38)" fill="#5975B7" stroke="#E6EAF5" stroke-width="2"/>
<rect x="261" y="1" width="13" height="260" rx="6.5" transform="rotate(90 261 1)" fill="#E6EAF5" stroke="#E6EAF5" stroke-width="2"/>
<rect x="222" y="1" width="13" height="221" rx="6.5" transform="rotate(90 222 1)" fill="#5975B7" stroke="#E6EAF5" stroke-width="2"/>
</svg>
