<svg width="670" height="481" viewBox="0 0 670 481" fill="none" xmlns="http://www.w3.org/2000/svg">
<mask id="mask0" mask-type="alpha" maskUnits="userSpaceOnUse" x="0" y="21" width="463" height="380">
<rect y="21" width="463" height="380" fill="#C4C4C4"/>
</mask>
<g mask="url(#mask0)">
<path d="M-50.6394 77.1881C-7.1049 49.6935 109.231 29.9266 226.301 170.816C343.37 311.705 487.259 279.774 544.57 246.197" stroke="#FC8D8D" stroke-width="23"/>
</g>
<g clip-path="url(#clip0)">
<path d="M650.6 338.304C657.339 313.048 642.182 285.706 616.749 278.318L593.03 271.651C588.738 270.324 584.194 272.874 583.09 277.229L572.123 316.247L561.173 355.627C559.847 359.919 562.397 364.462 566.752 365.567L590.25 372.171C616.188 379.463 643.185 364.686 650.6 338.304Z" fill="#17ACE8"/>
<path d="M590.25 372.172L566.751 365.568C562.397 364.462 559.847 359.919 561.172 355.627L572.123 316.247L650.6 338.304C643.185 364.686 616.188 379.463 590.25 372.172Z" fill="#1689FC"/>
<path d="M342.401 273.329L347.947 253.6L353.288 234.169C354.908 228.405 350.283 223.159 344.562 223.943L339.124 224.567L311.508 227.928C304.979 228.604 299.732 233.231 297.846 239.518L297.704 239.597C296.022 245.583 297.806 252.423 303.408 256.748L325.308 274.146L329.625 277.513C334.18 281.305 341.128 278.711 342.401 273.329Z" fill="#994C0F"/>
<path d="M370.997 310.312L329.625 277.513L325.308 274.146L332.207 249.175L339.124 224.567L344.562 223.943L397.184 217.565C403.049 216.701 407.629 222.533 405.911 227.791L394.944 266.808L383.774 306.127C382.216 311.669 375.331 314.041 370.997 310.312Z" fill="#FEDBAB"/>
<path d="M342.401 273.329C341.127 278.711 334.18 281.305 329.625 277.513L325.308 274.146L303.408 256.748C297.805 252.423 296.022 245.583 297.703 239.597L297.845 239.518L347.947 253.6L342.401 273.329Z" fill="#713708"/>
<path d="M383.774 306.127C382.216 311.669 375.331 314.04 370.997 310.312L329.625 277.513L325.308 274.146L332.207 249.175L394.945 266.808L383.774 306.127Z" fill="#FEC478"/>
<path d="M545.291 351.282L556.382 311.821L567.349 272.804C568.612 268.733 565.904 263.907 561.771 262.865L400.334 217.851L400.192 217.931L387.045 264.709L373.834 311.705L535.351 356.861C539.501 358.267 544.33 355.558 545.291 351.282Z" fill="#FC8D8D"/>
<path d="M545.291 351.283C544.33 355.558 539.501 358.268 535.351 356.861L373.834 311.705L387.045 264.709L556.382 311.822L545.291 351.283Z" fill="#DE7878"/>
<path d="M587.863 320.67L600.93 273.75L553.932 260.542L527.45 354.76L574.589 367.888L587.863 320.67Z" fill="#C5C9F7"/>
<path d="M574.59 367.888L527.45 354.76L540.722 307.538L587.863 320.67L574.59 367.888Z" fill="#A8AFF1"/>
</g>
<defs>
<clipPath id="clip0">
<rect width="277.901" height="277.901" fill="white" transform="translate(533.613 101.811) rotate(60.6992)"/>
</clipPath>
</defs>
</svg>
